Coordinates
version=1
nRows=7
nColumns=40
inDegrees=yes

Units are S.I. units (second, meters, Newtons, ...)
Angles are in degrees.

endheader
time	pelvis_tilt	pelvis_list	pelvis_rotation	pelvis_tx	pelvis_ty	pelvis_tz	hip_flexion_r	hip_adduction_r	hip_rotation_r	knee_angle_r	knee_angle_r_beta	ankle_angle_r	subtalar_angle_r	mtp_angle_r	hip_flexion_l	hip_adduction_l	hip_rotation_l	knee_angle_l	knee_angle_l_beta	ankle_angle_l	subtalar_angle_l	mtp_angle_l	lumbar_extension	lumbar_bending	lumbar_rotation	arm_flex_r	arm_add_r	arm_rot_r	elbow_flex_r	pro_sup_r	wrist_flex_r	wrist_dev_r	arm_flex_l	arm_add_l	arm_rot_l	elbow_flex_l	pro_sup_l	wrist_flex_l	wrist_dev_l
     22.09000000	     -6.19771447	     -3.93736094	     -3.23338987	      1.04520778	      0.93079985	      0.42016459	     33.46051574	     -7.39716876	     -7.29671183	     71.42921640	     71.42921640	      1.77481286	    -15.71235412	      0.90594031	     18.28932220	     -5.91514273	     -9.82221282	     21.86515795	     21.86515795	     12.37337398	     -5.35866382	     -2.80004911	    -11.97085576	      2.63185357	      1.97803071	      8.89362916	    -16.00372759	      7.44666892	     83.56612331	     45.03694647	      0.00000000	      0.00000000	     11.11124307	    -13.47409017	      2.90955912	     39.80775559	     45.40475369	      0.00000000	      0.00000000
     22.10164286	     -6.16003087	     -3.91207733	     -3.44500690	      1.04466303	      0.93123937	      0.42007335	     34.58803134	     -7.35774182	     -7.06438044	     69.99177180	     69.99177180	      1.54754468	    -15.11834610	      0.28725246	     17.40165414	     -5.79719670	     -9.85028230	     21.41040717	     21.41040717	     12.63345693	     -5.57717117	     -2.89594945	    -11.96746401	      2.68535836	      2.11788532	      7.01195313	    -16.36844493	      7.13068144	     79.31635929	     45.18006899	      0.00000000	      0.00000000	     13.87990274	    -13.82586838	      3.32178110	     38.99481308	     45.44460275	      0.00000000	      0.00000000
     22.11328571	     -6.05757333	     -3.91250657	     -3.66428892	      1.04420462	      0.93171744	      0.42006279	     35.48282342	     -7.25437690	     -6.84943452	     68.31652891	     68.31652891	      1.29258834	    -14.52618516	     -0.19399730	     16.40922538	     -5.73712844	    -10.04657958	     20.90015510	     20.90015510	     12.89739688	     -5.50872129	     -3.17016513	    -12.10728799	      2.75331786	      2.27208353	      5.21467920	    -16.47350138	      6.22618182	     75.05991521	     45.34015047	      0.00000000	      0.00000000	     16.13511245	    -14.35600967	      3.83696398	     39.64117841	     45.47733735	      0.00000000	      0.00000000
     22.12492857	     -5.93141996	     -3.94056851	     -3.87929797	      1.04379319	      0.93215166	      0.42004923	     36.20351114	     -7.12212569	     -6.69529549	     66.39622745	     66.39622745	      1.16189271	    -13.82291581	     -0.14089377	     15.39321669	     -5.69366880	    -10.21749247	     20.38979782	     20.38979782	     13.21900389	     -5.42956210	     -3.25516967	    -12.33164027	      2.87340778	      2.59047802	      3.18768795	    -17.13056657	      6.07413476	     71.94333387	     45.43770219	      0.00000000	      0.00000000	     18.28030718	    -14.70410584	      3.86695523	     40.74238687	     45.52177543	      0.00000000	      0.00000000
     22.13657143	     -5.86599092	     -3.85179481	     -4.11950110	      1.04330087	      0.93231745	      0.42021440	     36.90728414	     -7.01883153	     -6.44611357	     64.25189349	     64.25189349	      0.98789631	    -13.23188794	     -0.15431962	     14.48761481	     -5.53095287	    -10.39845910	     19.92365143	     19.92365143	     13.44841953	     -5.46994694	     -3.53648313	    -12.41959660	      2.81726341	      2.62905759	      2.17351762	    -16.81747109	      4.77422747	     66.21825503	     45.66296923	      0.00000000	      0.00000000	     20.38113715	    -15.37319498	      4.46379086	     41.51656259	     45.52290481	      0.00000000	      0.00000000
     22.14821429	     -5.85580044	     -3.86445852	     -4.29751834	      1.04289346	      0.93242742	      0.42040891	     37.41839773	     -6.84050968	     -6.39307302	     61.68446342	     61.68446342	      0.85471935	    -12.60986910	     -0.15941003	     13.62380833	     -5.45992434	    -10.45336704	     19.39325874	     19.39325874	     13.59888307	     -5.54329057	     -3.79552837	    -12.45024704	      2.91497053	      2.56440749	      1.21087753	    -16.57713151	      3.52488666	     60.91684084	     45.86935634	      0.00000000	      0.00000000	     22.18459568	    -16.06125750	      5.16720873	     42.56219653	     45.52092285	      0.00000000	      0.00000000
     22.15985714	     -5.85409467	     -3.88005044	     -4.49729994	      1.04248760	      0.93238520	      0.42073876	     37.77807014	     -6.64547446	     -6.43755165	     58.76447488	     58.76447488	      0.65784731	    -11.99686789	     -0.27634309	     12.78522457	     -5.39450943	    -10.51250768	     18.89670031	     18.89670031	     13.76860441	     -5.70213233	     -4.09913532	    -12.48075166	      3.01119813	      2.47712421	      0.48566611	    -16.36017075	      2.13964875	     55.53338978	     46.07837535	      0.00000000	      0.00000000	     23.77101003	    -16.82364697	      5.93348472	     43.95083051	     45.52849844	      0.00000000	      0.00000000
